<svg
   xmlns:dc="http://purl.org/dc/elements/1.1/"
   xmlns:cc="http://creativecommons.org/ns#"
   xmlns:rdf="http://www.w3.org/1999/02/22-rdf-syntax-ns#"
   xmlns:svg="http://www.w3.org/2000/svg"
   xmlns="http://www.w3.org/2000/svg"
   xmlns:sodipodi="http://sodipodi.sourceforge.net/DTD/sodipodi-0.dtd"
   xmlns:inkscape="http://www.inkscape.org/namespaces/inkscape"
   id="svg2"
   version="1.1"
   inkscape:version="0.48.4 r9939"
   viewBox="0 0 510 380"
   xml:space="preserve"
   sodipodi:docname="evobib.svg"><metadata
     id="metadata8"><rdf:RDF><cc:Work
         rdf:about=""><dc:format>image/svg+xml</dc:format><dc:type
           rdf:resource="http://purl.org/dc/dcmitype/StillImage" /><dc:title /></cc:Work></rdf:RDF></metadata><defs
     id="defs6"><clipPath
       clipPathUnits="userSpaceOnUse"
       id="clipPath20"><path
         d="m 0,0 2384,0 0,3370 L 0,3370 0,0 z"
         id="path22"
         inkscape:connector-curvature="0" /></clipPath><clipPath
       clipPathUnits="userSpaceOnUse"
       id="clipPath34"><path
         d="m 0,0 2384,0 0,3370 L 0,3370 0,0 z"
         id="path36"
         inkscape:connector-curvature="0" /></clipPath><clipPath
       clipPathUnits="userSpaceOnUse"
       id="clipPath108"><path
         d="m 0,0 2384,0 0,3370 L 0,3370 0,0 z"
         id="path110"
         inkscape:connector-curvature="0" /></clipPath><clipPath
       clipPathUnits="userSpaceOnUse"
       id="clipPath122"><path
         d="m 0,0 2384,0 0,3370 L 0,3370 0,0 z"
         id="path124"
         inkscape:connector-curvature="0" /></clipPath></defs><sodipodi:namedview
     pagecolor="#ffffff"
     bordercolor="#666666"
     borderopacity="1"
     objecttolerance="10"
     gridtolerance="10"
     guidetolerance="10"
     inkscape:pageopacity="0"
     inkscape:pageshadow="2"
     inkscape:window-width="1920"
     inkscape:window-height="1000"
     id="namedview4"
     showgrid="false"
     inkscape:zoom="1.17742"
     inkscape:cx="42.306957"
     inkscape:cy="161.18761"
     inkscape:window-x="0"
     inkscape:window-y="49"
     inkscape:window-maximized="1"
     inkscape:current-layer="g130" /><g
     id="g10"
     inkscape:groupmode="layer"
     inkscape:label="buch_evobib"
     transform="matrix(1.25,0,0,-1.25,0,380.00001)"><g
       id="g12"
       transform="translate(72,154.77)"><g
         id="g14"
         transform="matrix(1.7001343,0,0,1.7001343,-117.67374,-191.93443)"><g
           id="g16"><g
             id="g18"
             clip-path="url(#clipPath20)"><g
               id="g24"
               transform="scale(0.229721,0.229721)"><path
                 d="m 698.383,347.969 c 0,-33.196 -99.09,-33.196 -99.09,0"
                 style="fill:none;stroke:#000000;stroke-width:3.64278293;stroke-linecap:butt;stroke-linejoin:miter;stroke-miterlimit:10;stroke-opacity:1;stroke-dasharray:none"
                 id="path26"
                 inkscape:connector-curvature="0" /></g></g></g></g><g
         id="g28"
         transform="matrix(1.7001343,0,0,1.7001343,-117.67374,-191.93443)"><g
           id="g30"><g
             id="g32"
             clip-path="url(#clipPath34)"><g
               id="g38"
               transform="scale(0.229721,0.229721)"><path
                 d="m 698.383,595.688 c 0,-33.196 -99.09,-33.196 -99.09,0"
                 style="fill:none;stroke:#000000;stroke-width:3.64278293;stroke-linecap:butt;stroke-linejoin:miter;stroke-miterlimit:10;stroke-opacity:1;stroke-dasharray:none"
                 id="path40"
                 inkscape:connector-curvature="0" /><path
                 d="m 637.402,494.562 0,368.454 490.108,0 0,-736.903 -490.108,0"
                 style="fill:#fffacd;fill-opacity:1;fill-rule:nonzero;stroke:none"
                 id="path42"
                 inkscape:connector-curvature="0" /><path
                 d="m 637.402,494.562 0,368.454 490.108,0 0,-736.903 -490.108,0 0,368.449 z"
                 style="fill:none;stroke:#000000;stroke-width:2.0407095;stroke-linecap:butt;stroke-linejoin:miter;stroke-miterlimit:10;stroke-opacity:1;stroke-dasharray:none"
                 id="path44"
                 inkscape:connector-curvature="0" /><path
                 d="m 683.289,371.168 c 0,5.855 -4.75,10.605 -10.605,10.605 -5.856,0 -10.606,-4.75 -10.606,-10.605 0,-5.856 4.75,-10.606 10.606,-10.606 5.855,0 10.605,4.75 10.605,10.606"
                 style="fill:#bfbfbf;fill-opacity:1;fill-rule:nonzero;stroke:none"
                 id="path46"
                 inkscape:connector-curvature="0" /><path
                 d="m 683.289,371.168 c 0,5.855 -4.75,10.605 -10.605,10.605 -5.856,0 -10.606,-4.75 -10.606,-10.605 0,-5.856 4.75,-10.606 10.606,-10.606 5.855,0 10.605,4.75 10.605,10.606 z"
                 style="fill:none;stroke:#000000;stroke-width:2.0407095;stroke-linecap:butt;stroke-linejoin:miter;stroke-miterlimit:10;stroke-opacity:1;stroke-dasharray:none"
                 id="path48"
                 inkscape:connector-curvature="0" /><path
                 d="m 683.289,617.957 c 0,5.855 -4.75,10.605 -10.605,10.605 -5.856,0 -10.606,-4.75 -10.606,-10.605 0,-5.855 4.75,-10.605 10.606,-10.605 5.855,0 10.605,4.75 10.605,10.605"
                 style="fill:#bfbfbf;fill-opacity:1;fill-rule:nonzero;stroke:none"
                 id="path50"
                 inkscape:connector-curvature="0" /><path
                 d="m 683.289,617.957 c 0,5.855 -4.75,10.605 -10.605,10.605 -5.856,0 -10.606,-4.75 -10.606,-10.605 0,-5.855 4.75,-10.605 10.606,-10.605 5.855,0 10.605,4.75 10.605,10.605 z"
                 style="fill:none;stroke:#000000;stroke-width:2.0407095;stroke-linecap:butt;stroke-linejoin:miter;stroke-miterlimit:10;stroke-opacity:1;stroke-dasharray:none"
                 id="path52"
                 inkscape:connector-curvature="0" /><path
                 d="m 649.742,482.223 0,368.453 490.108,0 0,-736.903 -490.108,0"
                 style="fill:#fffacd;fill-opacity:1;fill-rule:nonzero;stroke:none"
                 id="path54"
                 inkscape:connector-curvature="0" /><path
                 d="m 649.742,482.223 0,368.453 490.108,0 0,-736.903 -490.108,0 0,368.45 z"
                 style="fill:none;stroke:#000000;stroke-width:2.0407095;stroke-linecap:butt;stroke-linejoin:miter;stroke-miterlimit:10;stroke-opacity:1;stroke-dasharray:none"
                 id="path56"
                 inkscape:connector-curvature="0" /><path
                 d="m 695.629,358.828 c 0,5.856 -4.75,10.606 -10.606,10.606 -5.855,0 -10.605,-4.75 -10.605,-10.606 0,-5.855 4.75,-10.605 10.605,-10.605 5.856,0 10.606,4.75 10.606,10.605"
                 style="fill:#bfbfbf;fill-opacity:1;fill-rule:nonzero;stroke:none"
                 id="path58"
                 inkscape:connector-curvature="0" /><path
                 d="m 695.629,358.828 c 0,5.856 -4.75,10.606 -10.606,10.606 -5.855,0 -10.605,-4.75 -10.605,-10.606 0,-5.855 4.75,-10.605 10.605,-10.605 5.856,0 10.606,4.75 10.606,10.605 z"
                 style="fill:none;stroke:#000000;stroke-width:2.0407095;stroke-linecap:butt;stroke-linejoin:miter;stroke-miterlimit:10;stroke-opacity:1;stroke-dasharray:none"
                 id="path60"
                 inkscape:connector-curvature="0" /><path
                 d="m 695.629,605.621 c 0,5.856 -4.75,10.606 -10.606,10.606 -5.855,0 -10.605,-4.75 -10.605,-10.606 0,-5.855 4.75,-10.605 10.605,-10.605 5.856,0 10.606,4.75 10.606,10.605"
                 style="fill:#bfbfbf;fill-opacity:1;fill-rule:nonzero;stroke:none"
                 id="path62"
                 inkscape:connector-curvature="0" /><path
                 d="m 695.629,605.621 c 0,5.856 -4.75,10.606 -10.606,10.606 -5.855,0 -10.605,-4.75 -10.605,-10.606 0,-5.855 4.75,-10.605 10.605,-10.605 5.856,0 10.606,4.75 10.606,10.605 z"
                 style="fill:none;stroke:#000000;stroke-width:2.0407095;stroke-linecap:butt;stroke-linejoin:miter;stroke-miterlimit:10;stroke-opacity:1;stroke-dasharray:none"
                 id="path64"
                 inkscape:connector-curvature="0" /><path
                 d="m 662.078,469.883 0,368.453 490.112,0 0,-736.902 -490.112,0"
                 style="fill:#fffacd;fill-opacity:1;fill-rule:nonzero;stroke:none"
                 id="path66"
                 inkscape:connector-curvature="0" /><path
                 d="m 662.078,469.883 0,368.453 490.112,0 0,-736.902 -490.112,0 0,368.449 z"
                 style="fill:none;stroke:#000000;stroke-width:2.0407095;stroke-linecap:butt;stroke-linejoin:miter;stroke-miterlimit:10;stroke-opacity:1;stroke-dasharray:none"
                 id="path68"
                 inkscape:connector-curvature="0" /><path
                 d="m 707.969,346.488 c 0,5.856 -4.75,10.606 -10.606,10.606 -5.855,0 -10.605,-4.75 -10.605,-10.606 0,-5.855 4.75,-10.605 10.605,-10.605 5.856,0 10.606,4.75 10.606,10.605"
                 style="fill:#bfbfbf;fill-opacity:1;fill-rule:nonzero;stroke:none"
                 id="path70"
                 inkscape:connector-curvature="0" /><path
                 d="m 707.969,346.488 c 0,5.856 -4.75,10.606 -10.606,10.606 -5.855,0 -10.605,-4.75 -10.605,-10.606 0,-5.855 4.75,-10.605 10.605,-10.605 5.856,0 10.606,4.75 10.606,10.605 z"
                 style="fill:none;stroke:#000000;stroke-width:2.0407095;stroke-linecap:butt;stroke-linejoin:miter;stroke-miterlimit:10;stroke-opacity:1;stroke-dasharray:none"
                 id="path72"
                 inkscape:connector-curvature="0" /><path
                 d="m 707.969,593.281 c 0,5.856 -4.75,10.606 -10.606,10.606 -5.855,0 -10.605,-4.75 -10.605,-10.606 0,-5.855 4.75,-10.605 10.605,-10.605 5.856,0 10.606,4.75 10.606,10.605"
                 style="fill:#bfbfbf;fill-opacity:1;fill-rule:nonzero;stroke:none"
                 id="path74"
                 inkscape:connector-curvature="0" /><path
                 d="m 707.969,593.281 c 0,5.856 -4.75,10.606 -10.606,10.606 -5.855,0 -10.605,-4.75 -10.605,-10.606 0,-5.855 4.75,-10.605 10.605,-10.605 5.856,0 10.606,4.75 10.606,10.605 z"
                 style="fill:none;stroke:#000000;stroke-width:2.0407095;stroke-linecap:butt;stroke-linejoin:miter;stroke-miterlimit:10;stroke-opacity:1;stroke-dasharray:none"
                 id="path76"
                 inkscape:connector-curvature="0" /><path
                 d="m 131.48,482.223 0,368.453 490.114,0 0,-736.903 -490.114,0"
                 style="fill:#fffacd;fill-opacity:1;fill-rule:nonzero;stroke:none"
                 id="path78"
                 inkscape:connector-curvature="0" /><path
                 d="m 131.48,482.223 0,368.453 490.114,0 0,-736.903 -490.114,0 0,368.45 z"
                 style="fill:none;stroke:#000000;stroke-width:2.0407095;stroke-linecap:butt;stroke-linejoin:miter;stroke-miterlimit:10;stroke-opacity:1;stroke-dasharray:none"
                 id="path80"
                 inkscape:connector-curvature="0" /><path
                 d="m 596.914,358.828 c 0,5.856 -4.75,10.606 -10.605,10.606 -5.856,0 -10.606,-4.75 -10.606,-10.606 0,-5.855 4.75,-10.605 10.606,-10.605 5.855,0 10.605,4.75 10.605,10.605"
                 style="fill:#bfbfbf;fill-opacity:1;fill-rule:nonzero;stroke:none"
                 id="path82"
                 inkscape:connector-curvature="0" /><path
                 d="m 596.914,358.828 c 0,5.856 -4.75,10.606 -10.605,10.606 -5.856,0 -10.606,-4.75 -10.606,-10.606 0,-5.855 4.75,-10.605 10.606,-10.605 5.855,0 10.605,4.75 10.605,10.605 z"
                 style="fill:none;stroke:#000000;stroke-width:2.0407095;stroke-linecap:butt;stroke-linejoin:miter;stroke-miterlimit:10;stroke-opacity:1;stroke-dasharray:none"
                 id="path84"
                 inkscape:connector-curvature="0" /><path
                 d="m 596.914,605.621 c 0,5.856 -4.75,10.606 -10.605,10.606 -5.856,0 -10.606,-4.75 -10.606,-10.606 0,-5.855 4.75,-10.605 10.606,-10.605 5.855,0 10.605,4.75 10.605,10.605"
                 style="fill:#bfbfbf;fill-opacity:1;fill-rule:nonzero;stroke:none"
                 id="path86"
                 inkscape:connector-curvature="0" /><path
                 d="m 596.914,605.621 c 0,5.856 -4.75,10.606 -10.605,10.606 -5.856,0 -10.606,-4.75 -10.606,-10.606 0,-5.855 4.75,-10.605 10.606,-10.605 5.855,0 10.605,4.75 10.605,10.605 z"
                 style="fill:none;stroke:#000000;stroke-width:2.0407095;stroke-linecap:butt;stroke-linejoin:miter;stroke-miterlimit:10;stroke-opacity:1;stroke-dasharray:none"
                 id="path88"
                 inkscape:connector-curvature="0" /><path
                 d="m 143.82,469.883 0,368.453 490.11,0 0,-736.902 -490.11,0"
                 style="fill:#fffacd;fill-opacity:1;fill-rule:nonzero;stroke:none"
                 id="path90"
                 inkscape:connector-curvature="0" /><path
                 d="m 143.82,469.883 0,368.453 490.11,0 0,-736.902 -490.11,0 0,368.449 z"
                 style="fill:none;stroke:#000000;stroke-width:2.0407095;stroke-linecap:butt;stroke-linejoin:miter;stroke-miterlimit:10;stroke-opacity:1;stroke-dasharray:none"
                 id="path92"
                 inkscape:connector-curvature="0" /><path
                 d="m 609.254,346.488 c 0,5.856 -4.75,10.606 -10.606,10.606 -5.855,0 -10.605,-4.75 -10.605,-10.606 0,-5.855 4.75,-10.605 10.605,-10.605 5.856,0 10.606,4.75 10.606,10.605"
                 style="fill:#bfbfbf;fill-opacity:1;fill-rule:nonzero;stroke:none"
                 id="path94"
                 inkscape:connector-curvature="0" /><path
                 d="m 609.254,346.488 c 0,5.856 -4.75,10.606 -10.606,10.606 -5.855,0 -10.605,-4.75 -10.605,-10.606 0,-5.855 4.75,-10.605 10.605,-10.605 5.856,0 10.606,4.75 10.606,10.605 z"
                 style="fill:none;stroke:#000000;stroke-width:2.0407095;stroke-linecap:butt;stroke-linejoin:miter;stroke-miterlimit:10;stroke-opacity:1;stroke-dasharray:none"
                 id="path96"
                 inkscape:connector-curvature="0" /><path
                 d="m 609.254,593.281 c 0,5.856 -4.75,10.606 -10.606,10.606 -5.855,0 -10.605,-4.75 -10.605,-10.606 0,-5.855 4.75,-10.605 10.605,-10.605 5.856,0 10.606,4.75 10.606,10.605"
                 style="fill:#bfbfbf;fill-opacity:1;fill-rule:nonzero;stroke:none"
                 id="path98"
                 inkscape:connector-curvature="0" /><path
                 d="m 609.254,593.281 c 0,5.856 -4.75,10.606 -10.606,10.606 -5.855,0 -10.605,-4.75 -10.605,-10.606 0,-5.855 4.75,-10.605 10.605,-10.605 5.856,0 10.606,4.75 10.606,10.605 z"
                 style="fill:none;stroke:#000000;stroke-width:2.0407095;stroke-linecap:butt;stroke-linejoin:miter;stroke-miterlimit:10;stroke-opacity:1;stroke-dasharray:none"
                 id="path100"
                 inkscape:connector-curvature="0" /></g></g></g></g><g
         id="g102"
         transform="matrix(1.7001343,0,0,1.7001343,-117.67374,-191.93443)"><g
           id="g104"><g
             id="g106"
             clip-path="url(#clipPath108)"><g
               id="g112"
               transform="scale(0.229721,0.229721)"><path
                 d="m 698.383,347.969 c 0,-33.196 -99.09,-33.196 -99.09,0"
                 style="fill:none;stroke:#000000;stroke-width:3.64278293;stroke-linecap:butt;stroke-linejoin:miter;stroke-miterlimit:10;stroke-opacity:1;stroke-dasharray:none"
                 id="path114"
                 inkscape:connector-curvature="0" /></g></g></g></g><g
         id="g116"
         transform="matrix(1.7001343,0,0,1.7001343,-117.67374,-191.93443)"><g
           id="g118"><g
             id="g120"
             clip-path="url(#clipPath122)"><g
               id="g126"
               transform="scale(0.229721,0.229721)"><path
                 d="m 698.383,595.688 c 0,-33.196 -99.09,-33.196 -99.09,0"
                 style="fill:none;stroke:#000000;stroke-width:3.64278293;stroke-linecap:butt;stroke-linejoin:miter;stroke-miterlimit:10;stroke-opacity:1;stroke-dasharray:none"
                 id="path128"
                 inkscape:connector-curvature="0" /></g></g></g></g><g
         id="g130"
         transform="matrix(0.5,0.866,-0.866,0.5,-34.72,-33.52)"><text
           transform="scale(1,-1)"
           id="text132"
           x="71.467873"
           y="56.534645"
           style="font-size:20.40161133px"><tspan
             style="font-size:60.6879921px;font-variant:normal;font-weight:bold;writing-mode:lr-tb;fill:#000000;fill-opacity:1;fill-rule:nonzero;stroke:none;font-family:Purisa;-inkscape-font-specification:Purisa-Bold"
             x="71.467873 71.467873 71.467873 114.37428 132.76273"
             y="56.534645 56.534645"
             sodipodi:role="line"
             id="tspan134"> B ib</tspan></text>
<g
           id="g136"
           transform="matrix(0.5,-0.866,0.866,0.5,46.39,-13.31)"><g
             id="g138"
             transform="matrix(0.9192626,0,0,0.9192626,81.651226,33.114599)"><text
               transform="matrix(1,0,0,-1,108.06,69.32)"
               id="text140"><tspan
                 style="font-size:20.66300011px;font-variant:normal;font-weight:normal;writing-mode:lr-tb;fill:#000000;fill-opacity:1;fill-rule:nonzero;stroke:none;font-family:Purisa;-inkscape-font-specification:Purisa"
                 x="0 13.534265 19.257915 32.792179 38.970417 44.694069 58.145683 72.692436 83.561172 95.049797 108.58407 119.70076"
                 y="0"
                 sodipodi:role="line"
                 id="tspan142">Bibliography</tspan></text>
<text
               transform="matrix(1,0,0,-1,111.8,30.4)"
               id="text144"><tspan
                 style="font-size:5.97800016px;font-variant:normal;font-weight:normal;writing-mode:lr-tb;fill:#000000;fill-opacity:1;fill-rule:nonzero;stroke:none;font-family:Purisa;-inkscape-font-specification:Purisa"
                 x="0 4.4117641 8.0344324 11.137014 14.353178 18.244856 21.389284"
                 y="0"
                 sodipodi:role="line"
                 id="tspan146">Author,</tspan></text>
<text
               transform="matrix(1,0,0,-1,143.18,30.4)"
               id="text148"><tspan
                 style="font-size:5.97800016px;font-variant:normal;font-weight:normal;writing-mode:lr-tb;fill:#000000;fill-opacity:1;fill-rule:nonzero;stroke:none;font-family:Purisa;-inkscape-font-specification:Purisa"
                 x="0 4.9557619 8.2795296 13.324962 19.78718 23.678858 28.293875 31.665466 35.03706 38.408649 42.210659 47.387608 52.361301 55.577465 62.039684 66.451447 70.07412 73.176697 76.39286 80.284538 86.20874 90.100418 96.610458 99.713043 102.92921"
                 y="0"
                 sodipodi:role="line"
                 id="tspan150">Name(2000):TheAuthorofthe</tspan><tspan
                 style="font-size:5.97800016px;font-variant:normal;font-weight:normal;writing-mode:lr-tb;fill:#000000;fill-opacity:1;fill-rule:nonzero;stroke:none;font-family:Purisa;-inkscape-font-specification:Purisa"
                 x="0 4.9557619 8.2795296 13.324962 17.013388 24.133186 28.54495 32.167618 35.270199 38.486362 42.37804 45.522469 51.787415 56.743176 60.066944 65.112373 68.800804"
                 y="6.9699998"
                 sodipodi:role="line"
                 id="tspan152">Name.Author:Name.</tspan></text>
<text
               transform="matrix(1,0,0,-1,111.8,4.5)"
               id="text154"><tspan
                 style="font-size:5.97800016px;font-variant:normal;font-weight:normal;writing-mode:lr-tb;fill:#000000;fill-opacity:1;fill-rule:nonzero;stroke:none;font-family:Purisa;-inkscape-font-specification:Purisa"
                 x="0 4.4117641 8.0344324 11.137014 14.353178 18.244856 21.389284"
                 y="0"
                 sodipodi:role="line"
                 id="tspan156">Author,</tspan></text>
<text
               transform="matrix(1,0,0,-1,143.18,4.5)"
               id="text158"><tspan
                 style="font-size:5.97800016px;font-variant:normal;font-weight:normal;writing-mode:lr-tb;fill:#000000;fill-opacity:1;fill-rule:nonzero;stroke:none;font-family:Purisa;-inkscape-font-specification:Purisa"
                 x="0 4.9557619 8.2795296 13.324962 19.78718 23.678858 28.293875 31.665466 35.03706 38.408649 42.210659 47.387608 52.361301 55.577465 62.039684 66.451447 70.07412 73.176697 76.39286 80.284538 86.20874 90.100418 96.610458 99.713043 102.92921"
                 y="0"
                 sodipodi:role="line"
                 id="tspan160">Name(2000):TheAuthorofthe</tspan><tspan
                 style="font-size:5.97800016px;font-variant:normal;font-weight:normal;writing-mode:lr-tb;fill:#000000;fill-opacity:1;fill-rule:nonzero;stroke:none;font-family:Purisa;-inkscape-font-specification:Purisa"
                 x="0 4.9557619 8.2795296 13.324962 17.013388 24.133186 28.54495 32.167618 35.270199 38.486362 42.37804 45.522469 51.787415 56.743176 60.066944 65.112373 68.800804"
                 y="6.9699998"
                 sodipodi:role="line"
                 id="tspan162">Name.Author:Name.</tspan></text>
<text
               transform="matrix(1,0,0,-1,111.8,-21.4)"
               id="text164"><tspan
                 style="font-size:5.97800016px;font-variant:normal;font-weight:normal;writing-mode:lr-tb;fill:#000000;fill-opacity:1;fill-rule:nonzero;stroke:none;font-family:Purisa;-inkscape-font-specification:Purisa"
                 x="0 4.4117641 8.0344324 11.137014 14.353178 18.244856 21.389284"
                 y="0"
                 sodipodi:role="line"
                 id="tspan166">Author,</tspan></text>
<text
               transform="matrix(1,0,0,-1,143.18,-21.4)"
               id="text168"><tspan
                 style="font-size:5.97800016px;font-variant:normal;font-weight:normal;writing-mode:lr-tb;fill:#000000;fill-opacity:1;fill-rule:nonzero;stroke:none;font-family:Purisa;-inkscape-font-specification:Purisa"
                 x="0 4.9557619 8.2795296 13.324962 19.78718 23.678858 28.293875 31.665466 35.03706 38.408649 42.210659 47.387608 52.361301 55.577465 62.039684 66.451447 70.07412 73.176697 76.39286 80.284538 86.20874 90.100418 96.610458 99.713043 102.92921"
                 y="0"
                 sodipodi:role="line"
                 id="tspan170">Name(2000):TheAuthorofthe</tspan><tspan
                 style="font-size:5.97800016px;font-variant:normal;font-weight:normal;writing-mode:lr-tb;fill:#000000;fill-opacity:1;fill-rule:nonzero;stroke:none;font-family:Purisa;-inkscape-font-specification:Purisa"
                 x="0 4.9557619 8.2795296 13.324962 17.013388 24.133186 28.54495 32.167618 35.270199 38.486362 42.37804 45.522469 51.787415 56.743176 60.066944 65.112373 68.800804"
                 y="6.98"
                 sodipodi:role="line"
                 id="tspan172">Name.Author:Name.</tspan></text>
<text
               transform="matrix(1,0,0,-1,111.8,-47.31)"
               id="text174"><tspan
                 style="font-size:5.97800016px;font-variant:normal;font-weight:normal;writing-mode:lr-tb;fill:#000000;fill-opacity:1;fill-rule:nonzero;stroke:none;font-family:Purisa;-inkscape-font-specification:Purisa"
                 x="0 4.4117641 8.0344324 11.137014 14.353178 18.244856 21.389284"
                 y="0"
                 sodipodi:role="line"
                 id="tspan176">Author,</tspan></text>
<text
               transform="matrix(1,0,0,-1,143.18,-47.31)"
               id="text178"><tspan
                 style="font-size:5.97800016px;font-variant:normal;font-weight:normal;writing-mode:lr-tb;fill:#000000;fill-opacity:1;fill-rule:nonzero;stroke:none;font-family:Purisa;-inkscape-font-specification:Purisa"
                 x="0 4.9557619 8.2795296 13.324962 19.78718 23.678858 28.293875 31.665466 35.03706 38.408649 42.210659 47.387608 52.361301 55.577465 62.039684 66.451447 70.07412 73.176697 76.39286 80.284538 86.20874 90.100418 96.610458 99.713043 102.92921"
                 y="0"
                 sodipodi:role="line"
                 id="tspan180">Name(2000):TheAuthorofthe</tspan><tspan
                 style="font-size:5.97800016px;font-variant:normal;font-weight:normal;writing-mode:lr-tb;fill:#000000;fill-opacity:1;fill-rule:nonzero;stroke:none;font-family:Purisa;-inkscape-font-specification:Purisa"
                 x="0 4.9557619 8.2795296 13.324962 17.013388 24.133186 28.54495 32.167618 35.270199 38.486362 42.37804 45.522469 51.787415 56.743176 60.066944 65.112373 68.800804"
                 y="6.9699998"
                 sodipodi:role="line"
                 id="tspan182">Name.Author:Name.</tspan></text>
<text
               transform="matrix(1,0,0,-1,111.8,-73.21)"
               id="text184"><tspan
                 style="font-size:5.97800016px;font-variant:normal;font-weight:normal;writing-mode:lr-tb;fill:#000000;fill-opacity:1;fill-rule:nonzero;stroke:none;font-family:Purisa;-inkscape-font-specification:Purisa"
                 x="0 4.4117641 8.0344324 11.137014 14.353178 18.244856 21.389284"
                 y="0"
                 sodipodi:role="line"
                 id="tspan186">Author,</tspan></text>
<text
               transform="matrix(1,0,0,-1,143.18,-73.21)"
               id="text188"><tspan
                 style="font-size:5.97800016px;font-variant:normal;font-weight:normal;writing-mode:lr-tb;fill:#000000;fill-opacity:1;fill-rule:nonzero;stroke:none;font-family:Purisa;-inkscape-font-specification:Purisa"
                 x="0 4.9557619 8.2795296 13.324962 19.78718 23.678858 28.293875 31.665466 35.03706 38.408649 42.210659 47.387608 52.361301 55.577465 62.039684 66.451447 70.07412 73.176697 76.39286 80.284538 86.20874 90.100418 96.610458 99.713043 102.92921"
                 y="0"
                 sodipodi:role="line"
                 id="tspan190">Name(2000):TheAuthorofthe</tspan><tspan
                 style="font-size:5.97800016px;font-variant:normal;font-weight:normal;writing-mode:lr-tb;fill:#000000;fill-opacity:1;fill-rule:nonzero;stroke:none;font-family:Purisa;-inkscape-font-specification:Purisa"
                 x="0 4.9557619 8.2795296 13.324962 17.013388 24.133186 28.54495 32.167618 35.270199 38.486362 42.37804 45.522469 51.787415 56.743176 60.066944 65.112373 68.800804"
                 y="6.9699998"
                 sodipodi:role="line"
                 id="tspan192">Name.Author:Name.</tspan></text>
<text
               transform="matrix(1,0,0,-1,111.8,-99.11)"
               id="text194"><tspan
                 style="font-size:5.97800016px;font-variant:normal;font-weight:normal;writing-mode:lr-tb;fill:#000000;fill-opacity:1;fill-rule:nonzero;stroke:none;font-family:Purisa;-inkscape-font-specification:Purisa"
                 x="0 4.4117641 8.0344324 11.137014 14.353178 18.244856 21.389284"
                 y="0"
                 sodipodi:role="line"
                 id="tspan196">Author,</tspan></text>
<text
               transform="matrix(1,0,0,-1,143.18,-99.11)"
               id="text198"><tspan
                 style="font-size:5.97800016px;font-variant:normal;font-weight:normal;writing-mode:lr-tb;fill:#000000;fill-opacity:1;fill-rule:nonzero;stroke:none;font-family:Purisa;-inkscape-font-specification:Purisa"
                 x="0 4.9557619 8.2795296 13.324962 19.78718 23.678858 28.293875 31.665466 35.03706 38.408649 42.210659 47.387608 52.361301 55.577465 62.039684 66.451447 70.07412 73.176697 76.39286 80.284538 86.20874 90.100418 96.610458 99.713043 102.92921"
                 y="0"
                 sodipodi:role="line"
                 id="tspan200">Name(2000):TheAuthorofthe</tspan><tspan
                 style="font-size:5.97800016px;font-variant:normal;font-weight:normal;writing-mode:lr-tb;fill:#000000;fill-opacity:1;fill-rule:nonzero;stroke:none;font-family:Purisa;-inkscape-font-specification:Purisa"
                 x="0 4.9557619 8.2795296 13.324962 17.013388 24.133186 28.54495 32.167618 35.270199 38.486362 42.37804 45.522469 51.787415 56.743176 60.066944 65.112373 68.800804"
                 y="6.98"
                 sodipodi:role="line"
                 id="tspan202">Name.Author:Name.</tspan></text>
<text
               transform="matrix(1,0,0,-1,111.8,-125.01)"
               id="text204"><tspan
                 style="font-size:5.97800016px;font-variant:normal;font-weight:normal;writing-mode:lr-tb;fill:#000000;fill-opacity:1;fill-rule:nonzero;stroke:none;font-family:Purisa;-inkscape-font-specification:Purisa"
                 x="0 4.4117641 8.0344324 11.137014 14.353178 18.244856 21.389284"
                 y="0"
                 sodipodi:role="line"
                 id="tspan206">Author,</tspan></text>
<text
               transform="matrix(1,0,0,-1,143.18,-125.01)"
               id="text208"><tspan
                 style="font-size:5.97800016px;font-variant:normal;font-weight:normal;writing-mode:lr-tb;fill:#000000;fill-opacity:1;fill-rule:nonzero;stroke:none;font-family:Purisa;-inkscape-font-specification:Purisa"
                 x="0 4.9557619 8.2795296 13.324962 19.78718 23.678858 28.293875 31.665466 35.03706 38.408649 42.210659 47.387608 52.361301 55.577465 62.039684 66.451447 70.07412 73.176697 76.39286 80.284538 86.20874 90.100418 96.610458 99.713043 102.92921"
                 y="0"
                 sodipodi:role="line"
                 id="tspan210">Name(2000):TheAuthorofthe</tspan><tspan
                 style="font-size:5.97800016px;font-variant:normal;font-weight:normal;writing-mode:lr-tb;fill:#000000;fill-opacity:1;fill-rule:nonzero;stroke:none;font-family:Purisa;-inkscape-font-specification:Purisa"
                 x="0 4.9557619 8.2795296 13.324962 17.013388 24.133186 28.54495 32.167618 35.270199 38.486362 42.37804 45.522469 51.787415 56.743176 60.066944 65.112373 68.800804"
                 y="6.98"
                 sodipodi:role="line"
                 id="tspan212">Name.Author:Name.</tspan></text>
<text
               transform="matrix(1,0,0,-1,111.8,-150.92)"
               id="text214"><tspan
                 style="font-size:5.97800016px;font-variant:normal;font-weight:normal;writing-mode:lr-tb;fill:#000000;fill-opacity:1;fill-rule:nonzero;stroke:none;font-family:Purisa;-inkscape-font-specification:Purisa"
                 x="0 4.4117641 8.0344324 11.137014 14.353178 18.244856 21.389284"
                 y="0"
                 sodipodi:role="line"
                 id="tspan216">Author,</tspan></text>
<text
               transform="matrix(1,0,0,-1,143.18,-150.92)"
               id="text218"><tspan
                 style="font-size:5.97800016px;font-variant:normal;font-weight:normal;writing-mode:lr-tb;fill:#000000;fill-opacity:1;fill-rule:nonzero;stroke:none;font-family:Purisa;-inkscape-font-specification:Purisa"
                 x="0 4.9557619 8.2795296 13.324962 19.78718 23.678858 28.293875 31.665466 35.03706 38.408649 42.210659 47.387608 52.361301 55.577465 62.039684 66.451447 70.07412 73.176697 76.39286 80.284538 86.20874 90.100418 96.610458 99.713043 102.92921"
                 y="0"
                 sodipodi:role="line"
                 id="tspan220">Name(2000):TheAuthorofthe</tspan><tspan
                 style="font-size:5.97800016px;font-variant:normal;font-weight:normal;writing-mode:lr-tb;fill:#000000;fill-opacity:1;fill-rule:nonzero;stroke:none;font-family:Purisa;-inkscape-font-specification:Purisa"
                 x="0 4.9557619 8.2795296 13.324962 17.013388 24.133186 28.54495 32.167618 35.270199 38.486362 42.37804 45.522469 51.787415 56.743176 60.066944 65.112373 68.800804"
                 y="6.9699998"
                 sodipodi:role="line"
                 id="tspan222">Name.Author:Name.</tspan></text>
</g></g></g><text
         transform="matrix(0.500011,0.86601905,0.86601905,-0.500011,0,0)"
         id="text132-3"
         x="-103.6588"
         y="53.162853"
         style="font-size:20.4011631px"><tspan
           style="font-size:60.68665695px;font-variant:normal;font-weight:bold;writing-mode:lr-tb;fill:#000000;fill-opacity:1;fill-rule:nonzero;stroke:none;font-family:Purisa;-inkscape-font-specification:Purisa-Bold"
           x="-103.6588 -103.6588 -103.6588 -42.365284"
           y="53.162853"
           sodipodi:role="line"
           id="tspan134-7"> E </tspan></text>
<text
         transform="matrix(0.50001101,0.86601905,0.86601905,-0.50001101,0,0)"
         id="text132-3-2"
         x="-67.224144"
         y="49.088348"
         style="font-size:20.4011631px"><tspan
           style="font-size:60.68665695px;font-variant:normal;font-weight:bold;writing-mode:lr-tb;fill:#000000;fill-opacity:1;fill-rule:nonzero;stroke:none;font-family:Purisa;-inkscape-font-specification:Purisa-Bold"
           x="-67.224144 -67.224144 -67.224144 -5.9306426"
           sodipodi:role="line"
           id="tspan134-7-8">v</tspan></text>
<text
         transform="matrix(0.50001101,0.86601905,0.86601905,-0.50001101,0,0)"
         id="text132-3-8"
         x="-26.549919"
         y="42.080326"
         style="font-size:20.4011631px"><tspan
           style="font-size:60.68665695px;font-variant:normal;font-weight:bold;writing-mode:lr-tb;fill:#000000;fill-opacity:1;fill-rule:nonzero;stroke:none;font-family:Purisa;-inkscape-font-specification:Purisa-Bold"
           x="-26.549919 -26.549919 -26.549919 34.743584"
           sodipodi:role="line"
           id="tspan134-7-2">o</tspan></text>
</g></g></svg>
